<svg width="172" height="62" viewBox="0 0 172 62" fill="none" xmlns="http://www.w3.org/2000/svg">
<path d="M28.4622 31.7962V17.2536H39.8743C41.6862 17.2536 43.0569 17.5951 43.9866 18.2781C44.9258 18.9516 45.3953 19.9382 45.3953 21.2379C45.3953 21.6742 45.3195 22.0679 45.1677 22.4189C45.0159 22.7699 44.8167 23.0735 44.57 23.3296C44.3234 23.5763 44.0435 23.7755 43.7305 23.9273C43.4269 24.079 43.1186 24.1739 42.8056 24.2118C43.2324 24.2972 43.6214 24.4443 43.9724 24.653C44.3329 24.8617 44.6412 25.1178 44.8973 25.4214C45.1534 25.7154 45.3527 26.0475 45.4949 26.4174C45.6372 26.7874 45.7084 27.1763 45.7084 27.5843C45.7084 28.3432 45.5661 28.993 45.2815 29.5337C44.9969 30.0649 44.5985 30.5013 44.0862 30.8428C43.574 31.1748 42.9573 31.4167 42.2364 31.5685C41.5249 31.7203 40.7375 31.7962 39.8743 31.7962H28.4622ZM39.8743 28.8222C40.1873 28.8222 40.4814 28.7985 40.7565 28.7511C41.0316 28.7036 41.2688 28.623 41.468 28.5092C41.6767 28.3858 41.838 28.2293 41.9518 28.0396C42.0751 27.8404 42.1368 27.5937 42.1368 27.2997C42.1368 27.0056 42.0751 26.7637 41.9518 26.574C41.838 26.3747 41.6767 26.2182 41.468 26.1044C41.2688 25.9811 41.0316 25.8957 40.7565 25.8482C40.4814 25.8008 40.1873 25.7771 39.8743 25.7771H32.0338V28.8222H39.8743ZM39.8743 22.8173C40.5573 22.8173 41.0506 22.7177 41.3541 22.5185C41.6672 22.3098 41.8237 21.9778 41.8237 21.5225C41.8237 21.0576 41.6672 20.7256 41.3541 20.5264C41.0506 20.3272 40.5573 20.2276 39.8743 20.2276H32.0338V22.8173H39.8743Z" fill="white"/>
<path d="M65.3879 31.7962H61.8163V21.9209L52.624 31.7962H48.8389V17.2536H52.4105V27.1289L61.6028 17.2536H65.3879V31.7962Z" fill="white"/>
<path d="M86.8603 28.8222H89.1228V34.9979H85.5512V31.7962H71.3928V34.9979H67.8211V28.8222H70.5959C70.8615 28.3858 71.0939 27.8831 71.2932 27.3139C71.5019 26.7447 71.6774 26.1471 71.8196 25.521C71.9714 24.8949 72.0948 24.2593 72.1896 23.6142C72.294 22.9596 72.3793 22.3241 72.4457 21.7074C72.5975 20.275 72.6782 18.7904 72.6876 17.2536H86.8603V28.8222ZM83.2887 28.8222V20.2276H75.9889C75.9889 20.7778 75.9604 21.4228 75.9035 22.1628C75.8466 22.8932 75.7518 23.6521 75.6189 24.4395C75.4956 25.2269 75.3344 26.0048 75.1351 26.7732C74.9454 27.5321 74.713 28.2151 74.4379 28.8222H83.2887Z" fill="white"/>
<path d="M92.2391 18.4773C92.7798 18.2022 93.4296 17.9508 94.1885 17.7232C94.8431 17.5334 95.6494 17.3627 96.6076 17.2109C97.5752 17.0496 98.704 16.969 99.9942 16.969C101.455 16.969 102.679 17.0971 103.665 17.3532C104.652 17.5998 105.444 17.9888 106.042 18.52C106.649 19.0513 107.081 19.7343 107.337 20.5691C107.602 21.3944 107.735 22.3857 107.735 23.5431V31.7962H104.163V29.5052C103.623 30.4254 102.821 31.0847 101.759 31.4832C100.706 31.8816 99.4582 32.0808 98.0163 32.0808C96.9443 32.0808 95.972 31.9859 95.0992 31.7962C94.236 31.597 93.496 31.2934 92.8794 30.8855C92.2723 30.4776 91.8027 29.9653 91.4707 29.3487C91.1481 28.7226 90.9869 27.9874 90.9869 27.1431C90.9869 26.2894 91.1766 25.5637 91.5561 24.966C91.9355 24.3589 92.4478 23.8608 93.0928 23.4719C93.7379 23.083 94.4921 22.7841 95.3553 22.5754C96.2281 22.3667 97.153 22.2292 98.1301 22.1628C99.1072 22.0869 100.108 22.0679 101.133 22.1059C102.167 22.1438 103.177 22.215 104.163 22.3193C104.163 21.864 104.107 21.4845 103.993 21.1809C103.879 20.8774 103.665 20.6355 103.352 20.4552C103.049 20.2655 102.627 20.1327 102.086 20.0568C101.545 19.9809 100.848 19.943 99.9942 19.943C99.055 19.943 98.2013 20.0046 97.4329 20.128C96.674 20.2418 96.0099 20.3699 95.4407 20.5122C94.7767 20.6829 94.1838 20.8726 93.662 21.0813L92.2391 18.4773ZM94.5727 27.0008C94.5727 27.7597 94.9047 28.3005 95.5688 28.623C96.2423 28.9455 97.2479 29.1068 98.5855 29.1068C99.5815 29.1068 100.435 29.0072 101.147 28.808C101.858 28.6088 102.437 28.3432 102.883 28.0111C103.338 27.6696 103.665 27.2854 103.865 26.8585C104.073 26.4317 104.173 25.9905 104.163 25.5352V24.8806C103.926 24.8427 103.604 24.8095 103.196 24.781C102.797 24.7431 102.352 24.7146 101.858 24.6956C101.365 24.6767 100.838 24.6719 100.279 24.6814C99.7286 24.6814 99.1831 24.7099 98.6424 24.7668C98.1111 24.8142 97.5989 24.8901 97.1056 24.9945C96.6123 25.0988 96.1759 25.2411 95.7965 25.4214C95.4265 25.6016 95.1277 25.8198 94.9 26.0759C94.6818 26.332 94.5727 26.6404 94.5727 27.0008Z" fill="white"/>
<path d="M128.211 17.2536V31.7962H124.64V20.2133H115.974V25.7629C115.974 26.8538 115.86 27.7645 115.632 28.4949C115.405 29.2254 115.111 29.8183 114.75 30.2736C114.399 30.7195 114.001 31.0515 113.555 31.2697C113.119 31.4879 112.687 31.6397 112.26 31.7251C111.833 31.8009 111.43 31.8341 111.051 31.8247C110.681 31.8152 110.387 31.8057 110.168 31.7962V28.8222C110.396 28.8412 110.638 28.8365 110.894 28.808C111.16 28.77 111.406 28.6562 111.634 28.4665C111.862 28.2673 112.047 27.959 112.189 27.5416C112.341 27.1242 112.417 26.5313 112.417 25.7629V17.2536H128.211Z" fill="white"/>
<path d="M132.594 18.4773C133.135 18.2022 133.785 17.9508 134.544 17.7232C135.198 17.5334 136.004 17.3627 136.963 17.2109C137.93 17.0496 139.059 16.969 140.349 16.969C141.81 16.969 143.034 17.0971 144.02 17.3532C145.007 17.5998 145.799 17.9888 146.397 18.52C147.004 19.0513 147.436 19.7343 147.692 20.5691C147.957 21.3944 148.09 22.3857 148.09 23.5431V31.7962H144.519V29.5052C143.978 30.4254 143.176 31.0847 142.114 31.4832C141.061 31.8816 139.813 32.0808 138.371 32.0808C137.299 32.0808 136.327 31.9859 135.454 31.7962C134.591 31.597 133.851 31.2934 133.234 30.8855C132.627 30.4776 132.158 29.9653 131.826 29.3487C131.503 28.7226 131.342 27.9874 131.342 27.1431C131.342 26.2894 131.532 25.5637 131.911 24.966C132.291 24.3589 132.803 23.8608 133.448 23.4719C134.093 23.083 134.847 22.7841 135.71 22.5754C136.583 22.3667 137.508 22.2292 138.485 22.1628C139.462 22.0869 140.463 22.0679 141.488 22.1059C142.522 22.1438 143.532 22.215 144.519 22.3193C144.519 21.864 144.462 21.4845 144.348 21.1809C144.234 20.8774 144.02 20.6355 143.707 20.4552C143.404 20.2655 142.982 20.1327 142.441 20.0568C141.9 19.9809 141.203 19.943 140.349 19.943C139.41 19.943 138.556 20.0046 137.788 20.128C137.029 20.2418 136.365 20.3699 135.796 20.5122C135.132 20.6829 134.539 20.8726 134.017 21.0813L132.594 18.4773ZM134.928 27.0008C134.928 27.7597 135.26 28.3005 135.924 28.623C136.597 28.9455 137.603 29.1068 138.941 29.1068C139.937 29.1068 140.79 29.0072 141.502 28.808C142.213 28.6088 142.792 28.3432 143.238 28.0111C143.693 27.6696 144.02 27.2854 144.22 26.8585C144.428 26.4317 144.528 25.9905 144.519 25.5352V24.8806C144.281 24.8427 143.959 24.8095 143.551 24.781C143.152 24.7431 142.707 24.7146 142.213 24.6956C141.72 24.6767 141.194 24.6719 140.634 24.6814C140.084 24.6814 139.538 24.7099 138.997 24.7668C138.466 24.8142 137.954 24.8901 137.461 24.9945C136.967 25.0988 136.531 25.2411 136.152 25.4214C135.782 25.6016 135.483 25.8198 135.255 26.0759C135.037 26.332 134.928 26.6404 134.928 27.0008Z" fill="white"/>
<path d="M43.7732 39.8873V42.8613H32.0338V54.4299H28.4622V39.8873H43.7732Z" fill="white"/>
<path d="M46.6191 39.8873H50.1907V42.6052C50.4563 42.1498 50.7978 41.7372 51.2152 41.3672C51.6421 40.9972 52.1307 40.6842 52.6809 40.428C53.2311 40.1624 53.8335 39.9585 54.488 39.8162C55.1521 39.6739 55.8493 39.6027 56.5798 39.6027C57.9838 39.6027 59.2217 39.7972 60.2937 40.1861C61.3657 40.5656 62.2574 41.0968 62.9689 41.7799C63.6898 42.4534 64.2305 43.2502 64.591 44.1704C64.961 45.0906 65.146 46.0867 65.146 47.1586C65.146 48.2306 64.961 49.2314 64.591 50.1611C64.2305 51.0812 63.6898 51.8781 62.9689 52.5516C62.2574 53.2252 61.3657 53.7564 60.2937 54.1453C59.2217 54.5248 57.9838 54.7145 56.5798 54.7145C55.8493 54.7145 55.1521 54.6434 54.488 54.5011C53.8335 54.3588 53.2311 54.1596 52.6809 53.9034C52.1307 53.6378 51.6421 53.32 51.2152 52.9501C50.7978 52.5801 50.4563 52.1674 50.1907 51.7121V62.0001H46.6191V39.8873ZM55.8398 42.5909C54.7963 42.5909 53.9141 42.719 53.1931 42.9751C52.4817 43.2218 51.903 43.5586 51.4571 43.9854C51.0113 44.4028 50.6887 44.8866 50.4895 45.4369C50.2903 45.9871 50.1907 46.561 50.1907 47.1586C50.1907 47.7563 50.2808 48.3302 50.4611 48.8804C50.6508 49.4306 50.9638 49.9192 51.4002 50.3461C51.8366 50.7635 52.4153 51.1002 53.1362 51.3564C53.8667 51.603 54.7679 51.7263 55.8398 51.7263C56.8739 51.7263 57.7513 51.603 58.4723 51.3564C59.1933 51.1002 59.7767 50.7635 60.2225 50.3461C60.6684 49.9192 60.9909 49.4306 61.1902 48.8804C61.3894 48.3302 61.489 47.7563 61.489 47.1586C61.489 46.561 61.3894 45.9871 61.1902 45.4369C60.9909 44.8866 60.6684 44.4028 60.2225 43.9854C59.7767 43.5586 59.1933 43.2218 58.4723 42.9751C57.7513 42.719 56.8739 42.5909 55.8398 42.5909Z" fill="white"/>
<path d="M77.4688 39.6027C79.091 39.6027 80.5139 39.7925 81.7377 40.1719C82.9614 40.5514 83.9764 41.0826 84.7828 41.7656C85.5986 42.4392 86.2105 43.236 86.6184 44.1562C87.0263 45.0764 87.2303 46.0772 87.2303 47.1586C87.2303 48.2401 87.0263 49.2409 86.6184 50.1611C86.2105 51.0812 85.5986 51.8828 84.7828 52.5659C83.9764 53.2394 82.9614 53.7659 81.7377 54.1453C80.5139 54.5248 79.091 54.7145 77.4688 54.7145C75.8466 54.7145 74.4237 54.5248 73.1999 54.1453C71.9762 53.7659 70.9564 53.2394 70.1406 52.5659C69.3342 51.8828 68.7271 51.0812 68.3192 50.1611C67.9113 49.2409 67.7073 48.2401 67.7073 47.1586C67.7073 46.0772 67.9113 45.0764 68.3192 44.1562C68.7271 43.236 69.3342 42.4392 70.1406 41.7656C70.9564 41.0826 71.9762 40.5514 73.1999 40.1719C74.4237 39.7925 75.8466 39.6027 77.4688 39.6027ZM77.4688 42.5767C76.3304 42.5767 75.3723 42.7048 74.5944 42.9609C73.8165 43.2076 73.1857 43.5443 72.7019 43.9712C72.2276 44.3981 71.8861 44.8866 71.6774 45.4369C71.4687 45.9871 71.3643 46.561 71.3643 47.1586C71.3643 47.7563 71.4687 48.3302 71.6774 48.8804C71.8861 49.4306 72.2276 49.9192 72.7019 50.3461C73.1857 50.7729 73.8165 51.1145 74.5944 51.3706C75.3723 51.6172 76.3304 51.7406 77.4688 51.7406C78.6072 51.7406 79.5653 51.6172 80.3432 51.3706C81.121 51.1145 81.7471 50.7729 82.2215 50.3461C82.7053 49.9192 83.0515 49.4306 83.2602 48.8804C83.4689 48.3302 83.5733 47.7563 83.5733 47.1586C83.5733 46.561 83.4689 45.9871 83.2602 45.4369C83.0515 44.8866 82.7053 44.3981 82.2215 43.9712C81.7471 43.5443 81.121 43.2076 80.3432 42.9609C79.5653 42.7048 78.6072 42.5767 77.4688 42.5767Z" fill="white"/>
<path d="M99.8946 49.72L104.96 39.8873H109.428V54.4299H105.857V45.195L101.104 54.4299H98.6851L93.9324 45.195V54.4299H90.3608V39.8873H94.8289L99.8946 49.72Z" fill="white"/>
<path d="M113.811 41.1111C114.352 40.836 115.002 40.5846 115.761 40.3569C116.415 40.1672 117.221 39.9964 118.18 39.8446C119.147 39.6834 120.276 39.6027 121.566 39.6027C123.027 39.6027 124.251 39.7308 125.237 39.9869C126.224 40.2336 127.016 40.6225 127.614 41.1538C128.221 41.685 128.653 42.368 128.909 43.2028C129.174 44.0281 129.307 45.0195 129.307 46.1768V54.4299H125.735V52.139C125.195 53.0592 124.393 53.7185 123.331 54.1169C122.278 54.5153 121.03 54.7145 119.588 54.7145C118.516 54.7145 117.544 54.6197 116.671 54.4299C115.808 54.2307 115.068 53.9272 114.451 53.5192C113.844 53.1113 113.375 52.5991 113.043 51.9825C112.72 51.3564 112.559 50.6212 112.559 49.7769C112.559 48.9231 112.749 48.1974 113.128 47.5997C113.508 46.9926 114.02 46.4946 114.665 46.1056C115.31 45.7167 116.064 45.4179 116.927 45.2092C117.8 45.0005 118.725 44.8629 119.702 44.7965C120.679 44.7206 121.68 44.7017 122.705 44.7396C123.739 44.7776 124.749 44.8487 125.735 44.953C125.735 44.4977 125.679 44.1182 125.565 43.8147C125.451 43.5111 125.237 43.2692 124.924 43.089C124.621 42.8992 124.199 42.7664 123.658 42.6905C123.117 42.6147 122.42 42.5767 121.566 42.5767C120.627 42.5767 119.773 42.6384 119.005 42.7617C118.246 42.8755 117.582 43.0036 117.013 43.1459C116.349 43.3166 115.756 43.5064 115.234 43.7151L113.811 41.1111ZM116.145 49.6346C116.145 50.3935 116.477 50.9342 117.141 51.2567C117.814 51.5793 118.82 51.7406 120.157 51.7406C121.154 51.7406 122.007 51.6409 122.719 51.4417C123.43 51.2425 124.009 50.9769 124.455 50.6449C124.91 50.3034 125.237 49.9192 125.437 49.4923C125.645 49.0654 125.745 48.6243 125.735 48.1689V47.5144C125.498 47.4764 125.176 47.4432 124.768 47.4148C124.369 47.3768 123.924 47.3484 123.43 47.3294C122.937 47.3104 122.41 47.3057 121.851 47.3152C121.301 47.3152 120.755 47.3436 120.214 47.4005C119.683 47.448 119.171 47.5239 118.678 47.6282C118.184 47.7326 117.748 47.8749 117.368 48.0551C116.999 48.2353 116.7 48.4535 116.472 48.7097C116.254 48.9658 116.145 49.2741 116.145 49.6346Z" fill="white"/>
<path d="M150.78 51.456H153.042V57.6316H149.47V54.4299H135.312V57.6316H131.74V51.456H134.515C134.781 51.0196 135.013 50.5168 135.212 49.9476C135.421 49.3784 135.597 48.7808 135.739 48.1547C135.891 47.5286 136.014 46.893 136.109 46.2479C136.213 45.5934 136.299 44.9578 136.365 44.3412C136.517 42.9087 136.597 41.4241 136.607 39.8873H150.78V51.456ZM147.208 51.456V42.8613H139.908C139.908 43.4115 139.88 44.0566 139.823 44.7965C139.766 45.527 139.671 46.2859 139.538 47.0733C139.415 47.8606 139.254 48.6385 139.054 49.4069C138.865 50.1658 138.632 50.8488 138.357 51.456H147.208Z" fill="white"/>
<path d="M156.158 41.1111C156.699 40.836 157.349 40.5846 158.108 40.3569C158.762 40.1672 159.569 39.9964 160.527 39.8446C161.494 39.6834 162.623 39.6027 163.913 39.6027C165.374 39.6027 166.598 39.7308 167.585 39.9869C168.571 40.2336 169.363 40.6225 169.961 41.1538C170.568 41.685 171 42.368 171.256 43.2028C171.521 44.0281 171.654 45.0195 171.654 46.1768V54.4299H168.083V52.139C167.542 53.0592 166.74 53.7185 165.678 54.1169C164.625 54.5153 163.377 54.7145 161.935 54.7145C160.864 54.7145 159.891 54.6197 159.018 54.4299C158.155 54.2307 157.415 53.9272 156.799 53.5192C156.191 53.1113 155.722 52.5991 155.39 51.9825C155.067 51.3564 154.906 50.6212 154.906 49.7769C154.906 48.9231 155.096 48.1974 155.475 47.5997C155.855 46.9926 156.367 46.4946 157.012 46.1056C157.657 45.7167 158.411 45.4179 159.275 45.2092C160.147 45.0005 161.072 44.8629 162.049 44.7965C163.026 44.7206 164.027 44.7017 165.052 44.7396C166.086 44.7776 167.096 44.8487 168.083 44.953C168.083 44.4977 168.026 44.1182 167.912 43.8147C167.798 43.5111 167.585 43.2692 167.272 43.089C166.968 42.8992 166.546 42.7664 166.005 42.6905C165.464 42.6147 164.767 42.5767 163.913 42.5767C162.974 42.5767 162.12 42.6384 161.352 42.7617C160.593 42.8755 159.929 43.0036 159.36 43.1459C158.696 43.3166 158.103 43.5064 157.581 43.7151L156.158 41.1111ZM158.492 49.6346C158.492 50.3935 158.824 50.9342 159.488 51.2567C160.162 51.5793 161.167 51.7406 162.505 51.7406C163.501 51.7406 164.355 51.6409 165.066 51.4417C165.777 51.2425 166.356 50.9769 166.802 50.6449C167.257 50.3034 167.585 49.9192 167.784 49.4923C167.993 49.0654 168.092 48.6243 168.083 48.1689V47.5144C167.846 47.4764 167.523 47.4432 167.115 47.4148C166.717 47.3768 166.271 47.3484 165.777 47.3294C165.284 47.3104 164.758 47.3057 164.198 47.3152C163.648 47.3152 163.102 47.3436 162.562 47.4005C162.03 47.448 161.518 47.5239 161.025 47.6282C160.532 47.7326 160.095 47.8749 159.716 48.0551C159.346 48.2353 159.047 48.4535 158.819 48.7097C158.601 48.9658 158.492 49.2741 158.492 49.6346Z" fill="white"/>
<path d="M0.345825 16.8844L10.7193 20.5806L21.0927 16.8844V31.1111L10.7193 34.8073L0.345825 31.1111V16.8844Z" fill="#ACBE1A"/>
<path fill-rule="evenodd" clip-rule="evenodd" d="M10.7388 0L21.05 7.41246L19.1788 10.0153L12.3416 5.10022V16.3575H9.13598V5.10022L2.29875 10.0153L0.427612 7.41246L10.7388 0Z" fill="white"/>
</svg>
