<svg width="140" height="32" viewBox="0 0 140 32" fill="none" xmlns="http://www.w3.org/2000/svg">
<path d="M15.493 19.0909L21.3239 11.75L12.7042 17.4167L7 15.7424L25 7.5L23.3521 24.5L15.493 19.0909Z" fill="white" stroke="white" stroke-linejoin="round"/>
<path d="M53.6667 17.35H56.0476L57 13.75H53.6667V11.95C53.6667 11.023 53.6667 10.15 55.5714 10.15H57V7.126C56.6895 7.0873 55.5171 7 54.279 7C51.6933 7 49.8571 8.4913 49.8571 11.23V13.75H47V17.35H49.8571V25H53.6667V17.35Z" fill="white"/>
<path fill-rule="evenodd" clip-rule="evenodd" d="M79 10C79 8.34315 80.3431 7 82 7H94C95.6569 7 97 8.34315 97 10V22C97 23.6569 95.6569 25 94 25H82C80.3431 25 79 23.6569 79 22V10ZM92.3046 16.0001C92.3046 18.3773 90.3774 20.3044 88.0002 20.3044C85.623 20.3044 83.6959 18.3773 83.6959 16.0001C83.6959 13.6228 85.623 11.6957 88.0002 11.6957C90.3774 11.6957 92.3046 13.6228 92.3046 16.0001ZM85.2442 16.0001C85.2442 17.5222 86.4781 18.7561 88.0002 18.7561C89.5223 18.7561 90.7562 17.5222 90.7562 16.0001C90.7562 14.478 89.5223 13.244 88.0002 13.244C86.4781 13.244 85.2442 14.478 85.2442 16.0001ZM93.0871 11.9566C93.6634 11.9566 94.1306 11.4894 94.1306 10.9131C94.1306 10.3368 93.6634 9.86963 93.0871 9.86963C92.5108 9.86963 92.0436 10.3368 92.0436 10.9131C92.0436 11.4894 92.5108 11.9566 93.0871 11.9566Z" fill="white"/>
<path d="M115.915 8H121.102L124.951 13.7674L130.559 8H133L125.888 15.1724L131.78 24H126.441L122.729 18.3584L117.136 24H115L121.824 16.9825L115.915 8Z" fill="white"/>
</svg>
