<svg width="25" height="24" viewBox="0 0 25 24" fill="none" xmlns="http://www.w3.org/2000/svg">
  <path d="M20.3335 19V16H7.3335C5.67664 16 4.3335 17.3431 4.3335 19M9.1335 22H17.1335C18.2536 22 18.8137 22 19.2415 21.782C19.6178 21.5903 19.9238 21.2843 20.1155 20.908C20.3335 20.4802 20.3335 19.9201 20.3335 18.8V5.2C20.3335 4.07989 20.3335 3.51984 20.1155 3.09202C19.9238 2.71569 19.6178 2.40973 19.2415 2.21799C18.8137 2 18.2536 2 17.1335 2H9.1335C7.45334 2 6.61326 2 5.97152 2.32698C5.40704 2.6146 4.9481 3.07354 4.66048 3.63803C4.3335 4.27976 4.3335 5.11984 4.3335 6.8V17.2C4.3335 18.8802 4.3335 19.7202 4.66048 20.362C4.9481 20.9265 5.40704 21.3854 5.97152 21.673C6.61326 22 7.45334 22 9.1335 22Z" stroke="#2C2E2A" stroke-width="2" stroke-linecap="round" stroke-linejoin="round"/>
</svg>
