<svg width="25" height="24" viewBox="0 0 25 24" fill="none" xmlns="http://www.w3.org/2000/svg">
<path d="M21.6667 12C21.6667 16.9706 17.6373 21 12.6667 21C11.4696 21 10.3271 20.7663 9.28224 20.3419C9.08227 20.2607 8.98229 20.2201 8.90147 20.202C8.82241 20.1843 8.7639 20.1778 8.68288 20.1778C8.60005 20.1778 8.50983 20.1928 8.3294 20.2229L4.77151 20.8159C4.39893 20.878 4.21264 20.909 4.07793 20.8512C3.96003 20.8007 3.86608 20.7067 3.81551 20.5888C3.75773 20.4541 3.78878 20.2678 3.85087 19.8952L4.44386 16.3374C4.47393 16.1569 4.48897 16.0667 4.48895 15.9839C4.48894 15.9028 4.48246 15.8443 4.46474 15.7653C4.44663 15.6845 4.40602 15.5845 4.32481 15.3845C3.90048 14.3397 3.66675 13.1971 3.66675 12C3.66675 7.02944 7.69619 3 12.6667 3C17.6373 3 21.6667 7.02944 21.6667 12Z" stroke="#2C2E2A" stroke-width="2" stroke-linecap="round" stroke-linejoin="round"/>
</svg>
